# Blender 4.3.2
# www.blender.org
mtllib Arrow.mtl
o Cube.001
v -0.185887 -0.185887 0.001895
v -0.185887 0.185887 0.001895
v -0.463797 -0.463797 -1.001895
v -0.463797 0.463797 -1.001895
v 0.185887 -0.185887 0.001895
v 0.185887 0.185887 0.001895
v 0.463797 -0.463797 -1.001895
v 0.463797 0.463797 -1.001895
v 0.000000 0.000000 -2.452148
v -0.177279 -0.177279 -0.958227
v -0.177279 0.177279 -0.958227
v 0.177279 -0.177279 -0.958227
v 0.177279 0.177279 -0.958227
vn -0.1507 -0.0000 0.9886
vn -0.0000 0.9525 -0.3046
vn 1.0000 -0.0000 -0.0090
vn -0.0000 -0.0000 1.0000
vn -0.0000 -1.0000 -0.0090
vn -0.0000 1.0000 -0.0090
vn -0.9525 -0.0000 -0.3046
vn 0.9525 -0.0000 -0.3046
vn -0.0000 -0.9525 -0.3046
vn -0.0000 0.1507 0.9886
vn -0.0000 -0.1507 0.9886
vn 0.1507 -0.0000 0.9886
vn -1.0000 -0.0000 -0.0090
vt 0.375000 0.239124
vt 0.625000 0.239124
vt 0.625000 0.250000
vt 0.375000 0.250000
vt 0.875000 0.500000
vt 0.625000 0.500000
vt 0.375000 0.510876
vt 0.625000 0.510876
vt 0.625000 0.750000
vt 0.375000 0.750000
vt 0.625000 1.000000
vt 0.375000 1.000000
vt 0.125000 0.510876
vt 0.125000 0.750000
vt 0.875000 0.510876
vt 0.875000 0.750000
vt 0.375000 0.500000
vt 0.125000 0.500000
vt 0.375000 0.000000
vt 0.625000 0.000000
s 0
f 10/1/1 11/2/1 4/3/1 3/4/1
f 4/5/2 8/6/2 9/5/2
f 12/7/3 13/8/3 6/9/3 5/10/3
f 5/10/4 6/9/4 2/11/4 1/12/4
f 10/13/5 12/7/5 5/10/5 1/14/5
f 13/8/6 11/15/6 2/16/6 6/9/6
f 3/4/7 4/3/7 9/4/7
f 8/6/8 7/17/8 9/6/8
f 7/17/9 3/18/9 9/17/9
f 8/6/10 4/5/10 11/15/10 13/8/10
f 3/18/11 7/17/11 12/7/11 10/13/11
f 7/17/12 8/6/12 13/8/12 12/7/12
f 1/19/13 2/20/13 11/2/13 10/1/13
