# Blender 4.4.0
# www.blender.org
mtllib Room.mtl
o Room
v -5.000000 -0.010442 5.000000
v -5.000000 5.696878 5.000000
v -5.000000 -0.010442 -5.000000
v -5.000000 5.696877 -5.000000
v 5.000000 -0.010442 5.000000
v 5.000000 5.696878 5.000000
v 5.000000 -0.010442 -5.000000
v 5.000000 5.696877 -5.000000
vn 1.0000 -0.0000 -0.0000
vn -0.0000 -0.0000 1.0000
vn -1.0000 -0.0000 -0.0000
vn -0.0000 -0.0000 -1.0000
vn -0.0000 1.0000 -0.0000
vn -0.0000 -1.0000 -0.0000
vt 1.000000 0.000000
vt 1.000000 0.466970
vt 0.733485 0.466970
vt 0.733485 0.000000
vt 0.466970 0.466970
vt 0.466970 -0.000000
vt 0.733485 0.000000
vt 0.733485 0.466970
vt 0.733485 0.933940
vt 1.000000 0.933940
vt 0.466970 0.933940
vt 0.466970 0.466970
vt 0.466970 0.466970
vt 0.000000 0.466970
vt 0.000000 0.000000
vt 0.466970 0.000000
vt 0.000000 0.466970
vt 0.466970 0.466970
vt 0.466970 0.933941
vt -0.000000 0.933941
s 1
f 1/1/1 3/2/1 4/3/1 2/4/1
f 3/5/2 7/6/2 8/7/2 4/8/2
f 7/9/3 5/3/3 6/2/3 8/10/3
f 5/11/4 1/12/4 2/8/4 6/9/4
f 3/13/5 1/14/5 5/15/5 7/16/5
f 2/17/6 4/18/6 8/19/6 6/20/6
